<svg width="32" height="28" viewBox="0 0 32 28" fill="none" xmlns="http://www.w3.org/2000/svg">
<path fill-rule="evenodd" clip-rule="evenodd" d="M16.9832 3.21519C16.9832 2.8929 16.8374 2.58381 16.5778 2.35592C16.3181 2.12803 15.966 2 15.5989 2C15.2318 2 14.8797 2.12803 14.62 2.35592C14.3604 2.58381 14.2146 2.8929 14.2146 3.21519V4.12658H13.4435C11.9596 4.1265 10.5314 4.62286 9.44967 5.51462C8.36796 6.40638 7.71406 7.62649 7.62109 8.92658L7.31516 13.2211C7.1985 14.8585 6.5722 16.4364 5.50448 17.7829C5.28386 18.0612 5.14906 18.385 5.11319 18.7226C5.07732 19.0602 5.14159 19.4003 5.29975 19.7096C5.45792 20.019 5.7046 20.2872 6.0158 20.4881C6.327 20.689 6.69213 20.8158 7.07567 20.8561L11.792 21.3519V22.6582C11.792 23.5445 12.1931 24.3945 12.907 25.0212C13.621 25.6479 14.5893 26 15.5989 26C16.6085 26 17.5768 25.6479 18.2908 25.0212C19.0047 24.3945 19.4058 23.5445 19.4058 22.6582V21.3519L24.1221 20.8549C24.5054 20.8144 24.8703 20.6876 25.1813 20.4868C25.4923 20.286 25.7389 20.018 25.897 19.7088C26.0552 19.3996 26.1195 19.0598 26.0838 18.7223C26.0481 18.3848 25.9136 18.0612 25.6933 17.7829C24.6255 16.4364 23.9992 14.8585 23.8826 13.2211L23.5767 8.9278C23.4841 7.62749 22.8303 6.40707 21.7486 5.51506C20.6668 4.62304 19.2384 4.12652 17.7543 4.12658H16.9832V3.21519ZM13.4435 5.94937C12.4878 5.94927 11.5679 6.26893 10.8712 6.84327C10.1744 7.41761 9.75328 8.20346 9.69341 9.04081L9.38886 13.3353C9.24814 15.3051 8.49448 17.2032 7.20995 18.8231C7.19399 18.8432 7.18423 18.8666 7.18162 18.8911C7.17902 18.9155 7.18365 18.9401 7.19508 18.9625C7.2065 18.9848 7.22433 19.0042 7.24683 19.0188C7.26933 19.0333 7.29573 19.0425 7.32347 19.0455L12.4966 19.5911C14.5579 19.8074 16.6399 19.8074 18.7011 19.5911L23.8743 19.0455C23.9021 19.0425 23.9285 19.0333 23.951 19.0188C23.9735 19.0042 23.9913 18.9848 24.0027 18.9625C24.0141 18.9401 24.0188 18.9155 24.0162 18.8911C24.0136 18.8666 24.0038 18.8432 23.9878 18.8231C22.7038 17.2031 21.9506 15.305 21.8103 13.3353L21.5044 9.04081C21.4445 8.20346 21.0234 7.41761 20.3266 6.84327C19.6299 6.26893 18.71 5.94927 17.7543 5.94937H13.4435ZM15.5989 24.1772C14.6437 24.1772 13.8685 23.4967 13.8685 22.6582V21.7468H17.3293V22.6582C17.3293 23.4967 16.5541 24.1772 15.5989 24.1772Z" fill="#F9F9F9"/>
<circle cx="21.1035" cy="5" r="4" fill="#CC0066"/>
</svg>
