<svg width="16" height="16" viewBox="0 0 16 16" fill="none" xmlns="http://www.w3.org/2000/svg">
<path d="M12.3738 10.0404L14.4627 12.1294C14.7594 12.4261 14.7594 12.9072 14.4627 13.204C12.8583 14.8083 10.3184 14.9888 8.50332 13.6275L7.58022 12.9352C5.86876 11.6516 4.34843 10.1312 3.06483 8.41978L2.37251 7.49668C1.01117 5.68156 1.19168 3.14166 2.79603 1.53731C3.09277 1.24056 3.57389 1.24056 3.87064 1.53731L5.95956 3.62623C6.35008 4.01675 6.35008 4.64992 5.95956 5.04044L5.22645 5.77355C5.09122 5.90878 5.05769 6.11538 5.14322 6.28644C6.13211 8.26421 7.73579 9.86789 9.71356 10.8568C9.88462 10.9423 10.0912 10.9088 10.2265 10.7735L10.9596 10.0404C11.3501 9.64992 11.9832 9.64992 12.3738 10.0404Z" stroke="#707070" stroke-width="1.2"/>
</svg>
