<svg width="17" height="16" viewBox="0 0 17 16" fill="none" xmlns="http://www.w3.org/2000/svg">
<path d="M11.166 14V13C11.166 12.0681 11.166 11.6022 11.0138 11.2346C10.8108 10.7446 10.4214 10.3552 9.93138 10.1522C9.56384 10 9.0979 10 8.16602 10V10C7.23413 10 6.76819 10 6.40065 10.1522C5.91059 10.3552 5.52124 10.7446 5.31826 11.2346C5.16602 11.6022 5.16602 12.0681 5.16602 13V14" stroke="white"/>
<path d="M5.16602 5.33203H8.49935" stroke="white" stroke-linecap="round"/>
<path d="M2.5 8C2.5 5.17157 2.5 3.75736 3.37868 2.87868C4.25736 2 5.67157 2 8.5 2H11.0049C11.4137 2 11.618 2 11.8018 2.07612C11.9856 2.15224 12.1301 2.29676 12.4191 2.58579L13.9142 4.08088C14.2032 4.36991 14.3478 4.51443 14.4239 4.6982C14.5 4.88197 14.5 5.08634 14.5 5.49509V8C14.5 10.8284 14.5 12.2426 13.6213 13.1213C12.7426 14 11.3284 14 8.5 14V14C5.67157 14 4.25736 14 3.37868 13.1213C2.5 12.2426 2.5 10.8284 2.5 8V8Z" stroke="white"/>
</svg>
