<svg width="17" height="16" viewBox="0 0 17 16" fill="none" xmlns="http://www.w3.org/2000/svg">
<path d="M8.5 3.33203L9.20711 2.62492L8.5 1.91782L7.79289 2.62492L8.5 3.33203ZM7.5 11.332C7.5 11.8843 7.94771 12.332 8.5 12.332C9.05228 12.332 9.5 11.8843 9.5 11.332L7.5 11.332ZM13.2071 6.62492L9.20711 2.62492L7.79289 4.03914L11.7929 8.03914L13.2071 6.62492ZM7.79289 2.62492L3.79289 6.62492L5.20711 8.03914L9.20711 4.03914L7.79289 2.62492ZM7.5 3.33203L7.5 11.332L9.5 11.332L9.5 3.33203L7.5 3.33203Z" fill="white"/>
<path d="M3.83398 14L13.1673 14" stroke="white" stroke-width="2"/>
</svg>
