<svg width="64" height="40" viewBox="0 0 64 40" fill="none" xmlns="http://www.w3.org/2000/svg">
<g clip-path="url(#clip0_1408_2412)">
<path d="M40.2874 39.7014H50.1297C57.2525 39.7014 63.0802 35.9186 63.0802 28.8748C63.0802 21.8311 56.2165 18.3241 50.6478 18.0482C49.4965 7.03259 41.4529 0.332031 31.9991 0.332031C23.0633 0.332031 17.3081 6.26204 15.4225 12.1428C7.65221 12.881 0.917969 17.8255 0.917969 25.9221C0.917969 34.0187 7.91122 39.7014 16.4585 39.7014H23.7108" stroke="#333333" stroke-width="1.5" stroke-linecap="round" stroke-linejoin="round"/>
<path d="M36 29.8553L32 27.3594L28 29.8553M32 37.3594V27.9834" stroke="#333333" stroke-linecap="round" stroke-linejoin="round"/>
<path d="M41.9231 8.28906H22.7436C22.2812 8.28906 21.8377 8.45189 21.5107 8.74172C21.1837 9.03154 21 9.42464 21 9.83452V23.7436C21 24.1535 21.1837 24.5466 21.5107 24.8364C21.8377 25.1262 22.2812 25.2891 22.7436 25.2891H41.9231C42.3855 25.2891 42.829 25.1262 43.156 24.8364C43.483 24.5466 43.6667 24.1535 43.6667 23.7436V9.83452C43.6667 9.42464 43.483 9.03154 43.156 8.74172C42.829 8.45189 42.3855 8.28906 41.9231 8.28906ZM42.748 9.10333V19.7592L39.0821 17.2421C38.9202 17.0985 38.728 16.9847 38.5164 16.907C38.3048 16.8293 38.0781 16.7893 37.8491 16.7893C37.6201 16.7893 37.3933 16.8293 37.1817 16.907C36.9702 16.9847 36.7779 17.0985 36.616 17.2421L34.4365 19.1739L29.6417 14.9239C29.3147 14.6343 28.8714 14.4716 28.4092 14.4716C27.9469 14.4716 27.5036 14.6343 27.1767 14.9239L21.9187 18.8532V9.10333H42.748ZM21.9187 19.5767L28.4103 14.9196L38.3656 24.4748H21.9187V19.5767ZM42.748 24.4748H39.5943L35.0237 19.8052L37.8507 17.2377L42.748 20.8483V24.4748ZM34.0769 14.0845C34.0769 13.8553 34.1536 13.6312 34.2973 13.4406C34.441 13.2499 34.6452 13.1014 34.8842 13.0137C35.1231 12.9259 35.3861 12.903 35.6397 12.9477C35.8934 12.9924 36.1264 13.1028 36.3093 13.2649C36.4922 13.427 36.6167 13.6335 36.6672 13.8584C36.7176 14.0832 36.6917 14.3163 36.5928 14.5281C36.4938 14.7399 36.3262 14.9209 36.1111 15.0483C35.8961 15.1756 35.6433 15.2436 35.3846 15.2436C35.0378 15.2436 34.7052 15.1215 34.4599 14.9041C34.2147 14.6867 34.0769 14.3919 34.0769 14.0845Z" fill="#333333"/>
</g>
<defs>
<clipPath id="clip0_1408_2412">
<rect width="62.7027" height="40" fill="white" transform="translate(0.648438)"/>
</clipPath>
</defs>
</svg>
