<?xml version="1.0" standalone="no"?>
<!DOCTYPE svg PUBLIC "-//W3C//DTD SVG 20010904//EN"
 "http://www.w3.org/TR/2001/REC-SVG-20010904/DTD/svg10.dtd">
<svg version="1.0" xmlns="http://www.w3.org/2000/svg"
 width="300.000000pt" height="168.000000pt" viewBox="0 0 300.000000 168.000000"
 preserveAspectRatio="xMidYMid meet">

<g transform="translate(0.000000,168.000000) scale(0.100000,-0.100000)"
fill="#000000" stroke="none">
<path d="M1655 921 c-28 -9 -67 -27 -86 -39 -93 -57 -215 -63 -352 -16 -39 13
-88 24 -109 24 -37 0 -38 -1 -38 -37 0 -63 28 -171 57 -226 41 -77 121 -153
200 -190 63 -29 75 -31 178 -31 103 0 114 2 178 31 128 60 223 190 247 336 5
36 7 85 4 107 -6 35 -11 41 -43 50 -55 15 -180 11 -236 -9z"/>
</g>
</svg>
