<?xml version="1.0" standalone="no"?>
<!DOCTYPE svg PUBLIC "-//W3C//DTD SVG 20010904//EN"
 "http://www.w3.org/TR/2001/REC-SVG-20010904/DTD/svg10.dtd">
<svg version="1.0" xmlns="http://www.w3.org/2000/svg"
 width="225.000000pt" height="225.000000pt" viewBox="0 0 225.000000 225.000000"
 preserveAspectRatio="xMidYMid meet">

<g transform="translate(0.000000,225.000000) scale(0.100000,-0.100000)"
fill="#000000" stroke="none">
<path d="M763 1480 c-35 -14 -43 -42 -43 -148 l0 -99 -38 -7 c-85 -13 -152
-94 -152 -184 0 -36 3 -43 18 -40 12 2 18 16 22 53 7 61 30 98 75 119 29 14
93 16 480 16 495 0 495 0 535 -65 15 -24 20 -50 20 -101 l0 -69 -552 3 c-304
1 -563 0 -576 -3 -22 -5 -23 -9 -20 -98 2 -74 6 -92 18 -92 12 0 16 17 18 78
l3 77 554 0 554 0 3 -77 c2 -61 6 -78 18 -78 13 0 16 25 18 150 3 159 -4 204
-40 250 -41 53 -87 65 -250 65 l-148 0 0 34 c0 19 -9 44 -19 57 -18 23 -25 24
-136 24 -111 0 -118 -1 -136 -24 -10 -13 -19 -38 -19 -57 l0 -34 -105 0 -105
0 0 104 c0 85 3 105 16 110 23 9 687 7 701 -2 7 -5 13 -39 15 -87 2 -63 6 -80
18 -80 12 0 16 17 18 81 2 68 0 85 -17 105 l-19 24 -354 2 c-194 1 -363 -2
-375 -7z m465 -182 c7 -7 12 -25 12 -40 l0 -28 -115 0 -115 0 0 28 c0 45 16
52 115 52 57 0 95 -4 103 -12z"/>
</g>
</svg>
