<?xml version="1.0" standalone="no"?>
<!DOCTYPE svg PUBLIC "-//W3C//DTD SVG 20010904//EN"
 "http://www.w3.org/TR/2001/REC-SVG-20010904/DTD/svg10.dtd">
<svg version="1.0" xmlns="http://www.w3.org/2000/svg"
 width="200.000000pt" height="200.000000pt" viewBox="0 0 200.000000 200.000000"
 preserveAspectRatio="xMidYMid meet">

<g transform="translate(0.000000,200.000000) scale(0.100000,-0.100000)"
fill="#000000" stroke="none">
<path d="M415 1585 l-25 -24 0 -561 0 -561 25 -24 24 -25 561 0 561 0 24 25
c25 24 25 27 25 189 0 181 -7 214 -49 222 -14 3 -183 6 -376 7 l-350 2 -2 350
c-1 193 -4 362 -7 376 -8 42 -41 49 -222 49 -162 0 -165 0 -189 -25z m345
-407 l0 -363 -142 -142 c-79 -79 -146 -143 -151 -143 -4 0 -6 71 -5 158 l3
157 55 3 c59 3 80 14 80 43 0 20 -19 27 -90 31 l-45 3 0 75 0 75 45 3 c71 4
90 11 90 31 0 29 -21 40 -80 43 l-55 3 0 75 0 75 59 5 c66 6 90 26 67 54 -10
11 -31 16 -72 16 l-59 0 0 73 c0 41 3 77 7 80 3 4 71 7 150 7 l143 0 0 -362z
m778 -565 l-3 -148 -75 0 -75 0 -3 55 c-3 59 -14 80 -43 80 -20 0 -27 -19 -31
-90 l-3 -45 -77 -3 -78 -3 0 59 c0 42 -5 63 -16 73 -28 23 -48 -1 -54 -67 l-5
-59 -75 0 -75 0 -3 62 c-2 52 -6 63 -23 68 -34 11 -49 -12 -49 -76 l0 -59
-160 0 c-88 0 -160 3 -160 7 0 4 64 72 142 150 l143 143 363 0 363 0 -3 -147z"/>
</g>
</svg>
