<?xml version="1.0" standalone="no"?>
<!DOCTYPE svg PUBLIC "-//W3C//DTD SVG 20010904//EN"
 "http://www.w3.org/TR/2001/REC-SVG-20010904/DTD/svg10.dtd">
<svg version="1.0" xmlns="http://www.w3.org/2000/svg"
 width="1320.000000pt" height="880.000000pt" viewBox="0 0 1320.000000 880.000000"
 preserveAspectRatio="xMidYMid meet">

<g transform="translate(0.000000,880.000000) scale(0.100000,-0.100000)"
fill="#000000" stroke="none">
<path d="M7950 7331 c-343 -73 -636 -309 -923 -743 -50 -76 -94 -138 -98 -138
-3 0 -71 29 -150 64 -79 35 -176 77 -215 94 l-71 30 -76 -172 c-43 -94 -77
-176 -77 -182 0 -12 2 -13 630 -299 250 -114 493 -224 539 -246 46 -21 89 -39
96 -39 11 0 69 111 150 285 l33 71 -234 109 c-129 59 -234 112 -234 117 0 15
127 203 190 282 84 104 219 229 300 277 182 108 397 132 603 69 177 -55 308
-205 366 -421 55 -202 54 -175 58 -1161 l4 -918 -2323 -2 -2323 -3 -52 -24
c-130 -59 -205 -207 -174 -349 21 -99 305 -712 439 -947 155 -273 329 -467
509 -570 l53 -31 -210 -209 c-116 -115 -210 -213 -210 -217 0 -5 113 -8 251
-8 l251 0 147 142 148 141 1114 -2 c1117 -2 1271 2 1459 34 134 23 121 40 119
-147 l-1 -163 204 0 203 0 2 238 2 239 72 44 c288 178 495 442 613 783 41 117
80 297 95 443 15 132 15 2308 1 2449 -54 531 -274 891 -629 1028 -183 71 -459
92 -651 52z m890 -3358 c-1 -60 -21 -219 -40 -308 -53 -254 -155 -450 -314
-602 -172 -166 -384 -261 -686 -310 -92 -14 -232 -17 -1125 -20 -1065 -5
-1203 -1 -1350 37 -117 30 -179 64 -265 146 -144 138 -254 313 -476 758 -85
170 -154 313 -154 317 0 5 986 9 2205 9 l2205 0 0 -27z"/>
</g>
</svg>
